<?xml version="1.0" encoding="UTF-8"?>
<!DOCTYPE svg PUBLIC "-//W3C//DTD SVG 1.0//EN" "http://www.w3.org/TR/2001/REC-SVG-20010904/DTD/svg10.dtd">
<!-- Creator: CorelDRAW 2018 (64-Bit) -->
<svg xmlns="http://www.w3.org/2000/svg" xml:space="preserve" width="1930px" height="210px" version="1.0" style="shape-rendering:geometricPrecision; text-rendering:geometricPrecision; image-rendering:optimizeQuality; fill-rule:evenodd; clip-rule:evenodd"
viewBox="0 0 1930 210"
 xmlns:xlink="http://www.w3.org/1999/xlink">
 <defs>
  <style type="text/css">
   <![CDATA[
    .fil0 {fill:white}
   ]]>
  </style>
 </defs>
 <g id="Слой_x0020_1">
  <metadata id="CorelCorpID_0Corel-Layer"/>
  <path class="fil0" d="M1913.03 212.94l3.83 -195.82c-297.01,-25.27 -594.01,94.75 -795.21,115.11 -196.68,19.89 -285.51,-22.46 -444.55,-21.76 -153.29,0.7 -272.1,37.2 -438.8,56.15 -125.59,14.27 -193.54,10.52 -241.44,8.15l0 38.17 1916.17 0 0 0z"/>
  <path class="fil0" d="M1913.03 203.82l3.83 -176.87c-300.84,-30.18 -578.68,101.06 -776.05,124.93 -193.74,23.43 -304.67,-32.99 -463.71,-32.29 -153.29,0.7 -278.01,37.95 -438.8,61.06 -124.96,17.97 -199.42,11.74 -241.44,7.45l0 15.72 1916.17 0z"/>
  <path class="fil0" d="M1913.03 213.64l1.91 -161.63c-415.8,-8.92 -575.75,90.65 -774.13,109.69 -197.36,18.95 -333.41,-21.05 -492.45,-20.35 -153.3,0.7 -249.27,26.02 -410.06,49.13 -117.33,16.84 -206.95,10.96 -241.44,7.45l0 15.71 1916.17 0 0 0z"/>
 </g>
</svg>
